<?xml version="1.0" encoding="utf-8"?>
<!-- Generator: Adobe Illustrator 16.0.0, SVG Export Plug-In . SVG Version: 6.00 Build 0)  -->
<!DOCTYPE svg PUBLIC "-//W3C//DTD SVG 1.1//EN" "http://www.w3.org/Graphics/SVG/1.1/DTD/svg11.dtd">
<svg version="1.1" xmlns="http://www.w3.org/2000/svg" xmlns:xlink="http://www.w3.org/1999/xlink" x="0px" y="0px" width="125px"
	 height="125px" viewBox="0 0 125 125" enable-background="new 0 0 125 125" xml:space="preserve">
<g id="circuit-lines">
	<g>
		
			<line fill="none" stroke="#848279" stroke-width="0.5" stroke-linecap="round" stroke-miterlimit="10" x1="100" y1="100" x2="87.5" y2="87.5"/>
		
			<line fill="none" stroke="#848279" stroke-width="0.5" stroke-linecap="round" stroke-miterlimit="10" x1="96.875" y1="100" x2="100" y2="96.875"/>
		
			<line fill="none" stroke="#848279" stroke-width="0.5" stroke-linecap="round" stroke-miterlimit="10" x1="90.625" y1="100" x2="100" y2="90.625"/>
		
			<line fill="none" stroke="#848279" stroke-width="0.5" stroke-linecap="round" stroke-miterlimit="10" x1="84.375" y1="100" x2="100" y2="84.375"/>
		<polyline fill="none" stroke="#848279" stroke-width="0.5" stroke-linecap="round" stroke-miterlimit="10" points="84.375,93.75 
			84.375,96.875 81.25,100 		"/>
		
			<line fill="none" stroke="#848279" stroke-width="0.5" stroke-linecap="round" stroke-miterlimit="10" x1="81.25" y1="96.875" x2="78.125" y2="100"/>
		
			<line fill="none" stroke="#848279" stroke-width="0.5" stroke-linecap="round" stroke-miterlimit="10" x1="75" y1="93.75" x2="78.125" y2="90.625"/>
		
			<line fill="none" stroke="#848279" stroke-width="0.5" stroke-linecap="round" stroke-miterlimit="10" x1="71.875" y1="90.625" x2="75" y2="87.5"/>
		<polyline fill="none" stroke="#848279" stroke-width="0.5" stroke-linecap="round" stroke-miterlimit="10" points="65.625,90.625 
			62.5,87.5 65.625,84.375 71.875,84.375 		"/>
		<polyline fill="none" stroke="#848279" stroke-width="0.5" stroke-linecap="round" stroke-miterlimit="10" points="100,71.875 
			90.625,81.25 100,81.25 		"/>
		<polyline fill="none" stroke="#848279" stroke-width="0.5" stroke-linecap="round" stroke-miterlimit="10" points="71.875,93.75 
			56.25,93.75 53.125,96.875 53.125,100 		"/>
		
			<line fill="none" stroke="#848279" stroke-width="0.5" stroke-linecap="round" stroke-miterlimit="10" x1="100" y1="65.625" x2="87.5" y2="78.125"/>
		
			<line fill="none" stroke="#848279" stroke-width="0.5" stroke-linecap="round" stroke-miterlimit="10" x1="87.5" y1="75" x2="93.75" y2="68.75"/>
		
			<line fill="none" stroke="#848279" stroke-width="0.5" stroke-linecap="round" stroke-miterlimit="10" x1="81.25" y1="78.125" x2="93.75" y2="65.625"/>
		
			<line fill="none" stroke="#848279" stroke-width="0.5" stroke-linecap="round" stroke-miterlimit="10" x1="78.125" y1="78.125" x2="90.625" y2="65.625"/>
		<polyline fill="none" stroke="#848279" stroke-width="0.5" stroke-linecap="round" stroke-miterlimit="10" points="96.875,40.625 
			96.875,56.25 75,78.125 75,71.875 84.375,62.5 		"/>
		
			<line fill="none" stroke="#848279" stroke-width="0.5" stroke-linecap="round" stroke-miterlimit="10" x1="96.875" y1="50" x2="100" y2="50"/>
		<polyline fill="none" stroke="#848279" stroke-width="0.5" stroke-linecap="round" stroke-miterlimit="10" points="100,40.625 
			93.75,40.625 93.75,43.75 		"/>
		
			<line fill="none" stroke="#848279" stroke-width="0.5" stroke-linecap="round" stroke-miterlimit="10" x1="87.5" y1="43.75" x2="87.5" y2="40.625"/>
		<polyline fill="none" stroke="#848279" stroke-width="0.5" stroke-linecap="round" stroke-miterlimit="10" points="100,28.125 
			81.25,46.875 81.25,53.125 56.25,53.125 		"/>
		<polyline fill="none" stroke="#848279" stroke-width="0.5" stroke-linecap="round" stroke-miterlimit="10" points="96.875,25 
			78.125,43.75 78.125,53.125 		"/>
		<polyline fill="none" stroke="#848279" stroke-width="0.5" stroke-linecap="round" stroke-miterlimit="10" points="90.625,25 
			75,40.625 75,53.125 		"/>
		<polyline fill="none" stroke="#848279" stroke-width="0.5" stroke-linecap="round" stroke-miterlimit="10" points="84.375,25 
			71.875,37.5 71.875,53.125 		"/>
		<polyline fill="none" stroke="#848279" stroke-width="0.5" stroke-linecap="round" stroke-miterlimit="10" points="81.25,25 
			78.125,28.125 56.25,28.125 		"/>
		
			<line fill="none" stroke="#848279" stroke-width="0.5" stroke-linecap="round" stroke-miterlimit="10" x1="78.125" y1="25" x2="75" y2="28.125"/>
		<polyline fill="none" stroke="#848279" stroke-width="0.5" stroke-linecap="round" stroke-miterlimit="10" points="90.625,50 
			90.625,53.125 56.25,87.5 40.625,87.5 28.125,100 		"/>
		
			<line fill="none" stroke="#848279" stroke-width="0.5" stroke-linecap="round" stroke-miterlimit="10" x1="34.375" y1="100" x2="40.625" y2="93.75"/>
		<polyline fill="none" stroke="#848279" stroke-width="0.5" stroke-linecap="round" stroke-miterlimit="10" points="37.5,96.875 
			46.875,96.875 46.875,100 		"/>
		<polyline fill="none" stroke="#848279" stroke-width="0.5" stroke-linecap="round" stroke-miterlimit="10" points="46.875,90.625 
			50,90.625 50,100 		"/>
		<polyline fill="none" stroke="#848279" stroke-width="0.5" stroke-linecap="round" stroke-miterlimit="10" points="25,96.875 
			37.5,84.375 59.375,84.375 		"/>
		<polyline fill="none" stroke="#848279" stroke-width="0.5" stroke-linecap="round" stroke-miterlimit="10" points="25,90.625 
			34.375,81.25 71.875,81.25 		"/>
		<polyline fill="none" stroke="#848279" stroke-width="0.5" stroke-linecap="round" stroke-miterlimit="10" points="25,84.375 
			31.25,78.125 65.625,78.125 		"/>
		<polyline fill="none" stroke="#848279" stroke-width="0.5" stroke-linecap="round" stroke-miterlimit="10" points="25,81.25 
			31.25,75 59.375,75 		"/>
		
			<line fill="none" stroke="#848279" stroke-width="0.5" stroke-linecap="round" stroke-miterlimit="10" x1="25" y1="71.875" x2="40.625" y2="71.875"/>
		<polyline fill="none" stroke="#848279" stroke-width="0.5" stroke-linecap="round" stroke-miterlimit="10" points="25,65.625 
			28.125,62.5 31.25,62.5 		"/>
		<polyline fill="none" stroke="#848279" stroke-width="0.5" stroke-linecap="round" stroke-miterlimit="10" points="34.375,68.75 
			68.75,68.75 71.875,65.625 71.875,62.5 		"/>
		<polyline fill="none" stroke="#848279" stroke-width="0.5" stroke-linecap="round" stroke-miterlimit="10" points="65.625,71.875 
			68.75,71.875 75,78.125 		"/>
		
			<line fill="none" stroke="#848279" stroke-width="0.5" stroke-linecap="round" stroke-miterlimit="10" x1="25" y1="28.125" x2="28.125" y2="25"/>
		<polyline fill="none" stroke="#848279" stroke-width="0.5" stroke-linecap="round" stroke-miterlimit="10" points="25,25 
			28.125,28.125 28.125,31.25 		"/>
		<path fill="none" stroke="#848279" stroke-width="0.5" stroke-linecap="round" stroke-miterlimit="10" d="M31.25,40.625h3.125V50
			l9.375,9.375h12.5l3.125-3.125c0,0,3.125,0,3.125-3.125S59.375,50,59.375,50V31.25"/>
		<path fill="none" stroke="#848279" stroke-width="0.5" stroke-linecap="round" stroke-miterlimit="10" d="M28.125,46.875
			L43.75,62.5h15.625l3.125-3.125V56.25c0,0,3.125,0,3.125-3.125S62.5,50,62.5,50V31.25"/>
		<path fill="none" stroke="#848279" stroke-width="0.5" stroke-linecap="round" stroke-miterlimit="10" d="M25,50h3.125
			L43.75,65.625H62.5l3.125-3.125v-6.25c0,0,3.125,0,3.125-3.125S65.625,50,65.625,50V31.25H56.25"/>
		
			<line fill="none" stroke="#848279" stroke-width="0.5" stroke-linecap="round" stroke-miterlimit="10" x1="53.125" y1="40.625" x2="53.125" y2="31.25"/>
		
			<line fill="none" stroke="#848279" stroke-width="0.5" stroke-linecap="round" stroke-miterlimit="10" x1="46.875" y1="31.25" x2="46.875" y2="34.375"/>
		
			<line fill="none" stroke="#848279" stroke-width="0.5" stroke-linecap="round" stroke-miterlimit="10" x1="50" y1="31.25" x2="50" y2="46.875"/>
		
			<line fill="none" stroke="#848279" stroke-width="0.5" stroke-linecap="round" stroke-miterlimit="10" x1="43.75" y1="50" x2="40.625" y2="50"/>
		<polyline fill="none" stroke="#848279" stroke-width="0.5" stroke-linecap="round" stroke-miterlimit="10" points="43.75,40.625 
			40.625,40.625 40.625,43.75 		"/>
		<polyline fill="none" stroke="#848279" stroke-width="0.5" stroke-linecap="round" stroke-miterlimit="10" points="37.5,43.75 
			37.5,40.625 40.625,37.5 43.75,37.5 		"/>
	</g>
</g>
<g id="smt">
	<g id="round_caps">
		<g>
			
				<circle fill="#E2E2E2" stroke="#9B9A9A" stroke-width="0.75" stroke-linecap="round" stroke-miterlimit="10" cx="93.75" cy="65.625" r="3.125"/>
			
				<circle fill="#E2E2E2" stroke="#9B9A9A" stroke-width="0.75" stroke-linecap="round" stroke-miterlimit="10" cx="34.375" cy="28.125" r="3.125"/>
			
				<circle fill="#E2E2E2" stroke="#9B9A9A" stroke-width="0.75" stroke-linecap="round" stroke-miterlimit="10" cx="84.375" cy="59.375" r="3.125"/>
			
				<circle fill="#E2E2E2" stroke="#9B9A9A" stroke-width="0.75" stroke-linecap="round" stroke-miterlimit="10" cx="71.875" cy="59.375" r="3.125"/>
		</g>
	</g>
	<g id="resistors">
		<g>
			
				<rect x="59.375" y="71.875" fill="#CCCCCC" stroke="#878787" stroke-width="0.75" stroke-miterlimit="10" width="6.25" height="3.125"/>
			
				<rect x="40.625" y="90.625" fill="#CCCCCC" stroke="#878787" stroke-width="0.75" stroke-miterlimit="10" width="6.25" height="3.125"/>
			
				<rect x="31.25" y="59.375" fill="#CCCCCC" stroke="#878787" stroke-width="0.75" stroke-miterlimit="10" width="3.125" height="9.375"/>
			
				<rect x="43.75" y="46.875" fill="#CCCCCC" stroke="#878787" stroke-width="0.75" stroke-miterlimit="10" width="6.25" height="3.125"/>
			
				<rect x="43.75" y="40.625" fill="#CCCCCC" stroke="#878787" stroke-width="0.75" stroke-miterlimit="10" width="6.25" height="3.125"/>
			
				<rect x="43.75" y="34.375" fill="#CCCCCC" stroke="#878787" stroke-width="0.75" stroke-miterlimit="10" width="6.25" height="3.125"/>
			
				<rect x="37.5" y="43.75" fill="#CCCCCC" stroke="#878787" stroke-width="0.75" stroke-miterlimit="10" width="3.125" height="6.25"/>
			
				<rect x="53.125" y="40.625" fill="#CCCCCC" stroke="#878787" stroke-width="0.75" stroke-miterlimit="10" width="3.125" height="6.25"/>
		</g>
	</g>
	<g id="ics">
		<g>
			
				<rect x="65.246" y="91.54" transform="matrix(0.7071 0.7071 -0.7071 0.7071 87.343 -23.3646)" fill="#BCBCBC" stroke="#939393" stroke-linecap="round" stroke-miterlimit="10" width="13.258" height="4.419"/>
			
				<rect x="43.75" y="25" fill="#BCBCBC" stroke="#939393" stroke-linecap="round" stroke-miterlimit="10" width="12.5" height="6.25"/>
			
				<rect x="25" y="31.25" fill="#BCBCBC" stroke="#939393" stroke-linecap="round" stroke-miterlimit="10" width="6.25" height="15.625"/>
			
				<rect x="40.625" y="68.75" fill="#BCBCBC" stroke="#939393" stroke-linecap="round" stroke-miterlimit="10" width="6.25" height="6.25"/>
		</g>
	</g>
	<g id="gates">
		<g>
			<path fill="#B0AFB0" stroke="#707071" stroke-width="0.75" stroke-miterlimit="10" d="M87.5,43.75h6.25v3.125
				c0,0,0,3.125-3.125,3.125S87.5,46.875,87.5,46.875V43.75z"/>
			<path fill="#B0AFB0" stroke="#707071" stroke-width="0.75" stroke-miterlimit="10" d="M56.25,53.125
				C56.25,50,53.125,50,53.125,50L50,53.125h-3.125v3.125h6.25C53.125,56.25,56.25,56.25,56.25,53.125z"/>
		</g>
	</g>
	<g id="heart">
		<path fill="#D8D8D8" stroke="#939393" stroke-linecap="round" stroke-miterlimit="10" d="M81.25,96.875l9.375-9.375
			c1.563-1.563,3.125-3.125,3.125-6.25S90.625,75,87.5,75c-4.688,0-6.25,3.125-6.25,3.125S79.688,75,75,75
			c-3.125,0-6.25,3.125-6.25,6.25s1.563,4.688,3.125,6.25L81.25,96.875z"/>
	</g>
</g>
</svg>
